PathFileType	4	(X/Y/Z)	Patient4_TMGait_0pt4_03_right_07.trc.trc
DataRate	CameraRate	NumFrames	NumMarkers	Units	OrigDataRate	OrigDataStartFrame	OrigNumFrames
76.923076923077	76.923076923077	6	33	mm	76.923076923077	71	       141
Frame#	Time	Sacral			L.Shoulder			Chest			R.Shoulder			Neck			R.ASIS			L.ASIS			R.Thigh.Superior			R.Thigh.Lateral			R.Thigh.Inferior			R.Patella			L.Thigh.Superior			L.Thigh.Lateral			L.Thigh.Inferior			L.Patella			L.Shank.Superior			L.Shank.Lateral			L.Shank.Inferior			R.Shank.Superior			R.Shank.Lateral			R.Shank.Inferior			R.Heel			R.Midfoot.Superior			R.Midfoot.Lateral			R.Toe			L.Heel			L.Midfoot.Lateral			L.Midfoot.Superior			L.Toe			L.Elbow			L.Wrist			R.Elbow			R.Wrist			
		X1	Y1	Z1	X2	Y2	Z2	X3	Y3	Z3	X4	Y4	Z4	X5	Y5	Z5	X6	Y6	Z6	X7	Y7	Z7	X8	Y8	Z8	X9	Y9	Z9	X10	Y10	Z10	X11	Y11	Z11	X12	Y12	Z12	X13	Y13	Z13	X14	Y14	Z14	X15	Y15	Z15	X16	Y16	Z16	X17	Y17	Z17	X18	Y18	Z18	X19	Y19	Z19	X20	Y20	Z20	X21	Y21	Z21	X22	Y22	Z22	X23	Y23	Z23	X24	Y24	Z24	X25	Y25	Z25	X26	Y26	Z26	X27	Y27	Z27	X28	Y28	Z28	X29	Y29	Z29	X30	Y30	Z30	X31	Y31	Z31	X32	Y32	Z32	X33	Y33	Z33	

71	9.020000000000	819.643239421052	1013.343518128986	528.908165518519	994.039530703989	1422.621301335526	315.155258672465	1117.480977873690	1352.727386146943	460.598888282525	1068.728044057570	1437.396779252151	642.240870122654	1005.025093876048	1490.412602800813	468.786556875136	1054.163261599177	930.646174102197	615.975200825480	1010.850665974149	960.337266043617	345.131051856779	1055.430932255126	721.047300135199	585.819479985073	962.104630016956	627.092022121329	657.605592751025	1017.958406090649	562.722673323264	571.555536966269	1001.969557057660	477.634279799676	579.879200206768	1080.771990497183	771.781161106604	375.122714264381	1027.851281149213	646.066218214051	299.205754682995	1126.532307764677	583.114419425294	363.253394774208	1150.168205366046	518.063421236859	360.110622417695	1131.103954528570	445.849411773220	348.185186551602	1061.129653681755	319.406735575911	293.796781191271	1142.369815226830	216.247475227387	350.628708829655	963.827235106883	393.053106711719	590.743496151598	882.889428359249	300.939966540007	658.947300804289	906.413138909448	200.512125542322	595.308988681369	753.880758498016	43.857542897729	573.725365610363	925.256933256333	95.952081210412	607.565665407357	836.997450015459	36.702201108783	647.558778034550	1045.023306697607	41.831583479114	637.375119945719	1051.532064379227	40.611710710926	383.249883961376	1129.019842310352	44.071537187698	306.880823107009	1200.996071682042	118.466746868716	333.311964442007	1334.679695158798	85.029202620979	312.441018955233	872.162190487774	1081.338998880501	238.369722920622	870.204169210570	821.121020892022	218.612709109312	1170.652498846615	1108.730732771620	750.957594601165	1380.503338168820	1149.940843675161	622.674410249017	
72	9.033000000000	821.431622546227	1011.895393580239	526.205506208924	994.184660070530	1421.774451028533	312.601633179563	1117.709938368718	1352.411975580246	458.191769053117	1068.284716361456	1436.620267073279	639.858994627982	1004.860635298230	1489.617487999118	466.182085244586	1056.051129625106	929.910100093053	614.163836396002	1013.271834750656	958.786226204716	343.232274026241	1056.122170262520	719.859175347839	584.619199503233	961.831760842766	626.289159374576	656.251398594156	1017.584662290286	561.384142591602	570.583817027492	1000.793220841253	476.245213622598	578.758997904524	1082.501866987837	768.559669762948	372.895407060050	1026.085562232543	642.834806708081	299.193867975946	1125.114009622677	579.627569967369	362.297514563482	1147.072386781584	514.176796404397	360.282246473808	1127.915157758117	442.124418878535	348.664215236280	1056.623089971967	315.891010812867	295.969969893801	1137.495671860111	212.632947885693	352.831127306911	961.773287085540	391.998987076783	589.825724081281	879.986411470651	300.870590830476	658.488073119702	902.324584860854	200.057797841534	595.038626881785	748.642012206403	44.078042594870	573.881938439754	920.104726328322	95.969649674851	607.610969611438	831.800792392639	36.739203253695	647.622053785543	1039.838182074593	41.654520035330	637.450890293935	1044.852133468485	39.533395619436	387.136397661327	1121.720938484933	41.612579000804	310.056419596316	1195.543548345908	113.773359525824	336.240636788042	1328.263228165639	77.214337314872	314.200738762105	871.731583992039	1080.780159427957	236.492816225757	869.340077590430	820.501176898480	216.905998288371	1170.911628617433	1106.903444664626	745.583104120338	1380.486842819373	1146.664022801391	616.075431615307	
73	9.046000000000	823.279330433909	1010.434518260677	523.403176601453	994.359351774672	1420.885050664850	309.839892696979	1117.940764698401	1352.174085707916	455.651973347851	1067.731382421689	1435.920317139322	637.333666731670	1004.650762351041	1488.859710132539	463.338749668468	1058.047362553151	929.189931996617	612.218611871458	1015.760468438539	957.365849434688	341.257629175226	1057.069821375063	718.727254891745	583.262728552936	961.838419883464	625.500266335699	654.745656094747	1017.534925033994	560.071877803286	569.489588606857	999.995265706450	474.785134864860	577.524230630887	1084.528347265894	765.612669014693	370.569609112138	1024.888681918342	639.972809399185	298.973326460507	1124.254555049157	576.613901742000	361.360161764415	1144.489381701286	510.618845221137	360.418484858888	1125.185228698721	438.654306300386	349.007048580645	1052.460277885701	312.808118254823	297.652762011552	1132.513368360045	209.203016070542	354.676758225906	959.979883880675	390.942257766340	588.820616639464	877.293287280127	300.889506950920	657.992283966889	898.349147231616	199.672741878132	594.760559435271	743.415933141453	44.490340014901	574.084837658243	915.017876899945	96.020414071138	607.676000212550	826.638931591240	36.861545413720	647.711935286891	1034.706585370594	41.440373519066	637.537793803019	1037.551614881998	38.744870387267	390.383283194262	1113.833297544883	39.547260880028	312.594286251392	1189.615799337875	109.310720349454	338.757958602118	1321.374269152158	69.478159096342	315.470425688425	871.965505040191	1079.954889091271	234.242460075820	869.545621469452	819.622621912581	214.746650127750	1170.378442160578	1104.969484100595	740.461619236690	1379.993235567006	1142.274159776762	609.835963034847	
74	9.059000000000	825.135001972070	1009.055076210779	520.549755466968	994.564491746512	1420.018999730720	306.900222249861	1118.190970141653	1352.037162367302	452.977312500103	1067.160037251590	1435.345570379463	634.669136080916	1004.447423364914	1488.198882411209	460.287385146019	1060.091229868791	928.545666077170	610.108335481495	1018.214871712598	956.176028255086	339.173723548642	1058.270350956507	717.712568511666	581.725698379584	962.171469425865	624.771369070343	653.078176887003	1017.858983757099	558.846404188454	568.248766686909	999.677106867280	473.276840369357	576.193936862112	1086.768301833849	763.116126283098	368.208411511736	1024.389888448938	637.645688862575	298.460837346540	1123.995958316283	574.208877054816	360.425268341888	1142.528903998461	507.581192617383	360.471417478033	1123.070504754526	435.615282834744	349.173452055765	1048.975140015049	310.285629431606	298.675634679673	1127.753859909517	206.145797036465	356.093193548517	958.519038519223	389.921028760745	587.736651926842	874.861676128779	301.050665981818	657.451827355713	894.539864157697	199.407614048211	594.481173378575	738.222359253185	45.191324246835	574.337647221569	910.037564447125	96.114952888075	607.770939471648	821.529025466042	37.117466570973	647.832105070689	1029.637020581334	41.182893692745	637.633745814703	1030.146095008066	38.224627542236	392.848087925907	1105.939667587004	37.937493135638	314.434144007306	1183.593764149196	105.370816615933	340.791849609606	1314.481504901728	62.409034062865	316.348139873091	872.849610249242	1078.926258792232	231.639822348041	870.829887775992	818.548420636311	212.146409513884	1169.086946268789	1102.981715297675	735.663238573462	1379.015170873281	1136.709689097287	604.008673079276	
75	9.072000000000	826.954151681203	1007.848374542773	517.677273552974	994.794452297683	1419.253330671415	303.821116472047	1118.471807235373	1352.027585438732	450.171113862184	1066.655327175554	1434.947615151284	631.871982731836	1004.295387472008	1487.694910333152	457.072720921089	1062.120194552654	928.046635433503	607.805149435005	1020.547085309955	955.297193014540	336.938190434430	1059.714892052269	716.881417289953	579.987509346213	962.882858917204	624.148937071536	651.246679181885	1018.622132280338	557.770209738761	566.847862763946	999.957394268032	471.745661579424	574.807761843487	1089.147928472400	761.227962746015	365.862102627618	1024.674682919537	635.967763857893	297.603343378736	1124.349711259110	572.490801905744	359.450406286942	1141.257509426762	505.185553620126	360.375744187744	1121.652726040896	433.120113151045	349.131644914321	1046.351051025152	308.401361783957	298.960804733555	1123.419110185470	203.591800619832	357.055288087356	957.479825288259	388.974520249421	586.596633760854	872.751326071972	301.414180009442	656.862760580647	890.962883124272	199.317262319269	594.213086324112	733.089563331229	46.290846477732	574.639984161423	905.213229431503	96.263608334605	607.907677192476	816.490075799879	37.562869847667	647.983697749492	1024.633848221092	40.878495294455	637.734974539881	1023.000993824756	37.938928846302	394.503776180380	1098.438758200509	36.792552611924	315.597671802451	1177.722915576380	102.155275269116	342.309574383382	1307.890558058907	56.438307081365	316.912297002839	874.354176373740	1077.779408620687	228.711760678769	873.201227824212	817.364827114842	209.124456463130	1167.085984831193	1101.013164147440	731.238705510258	1377.544564442139	1129.907336367544	598.644881411808	
76	9.085000000000	828.703990685211	1006.888183718936	514.795924121102	995.037240751761	1418.665159013371	300.644459695430	1118.785770975226	1352.170084079247	447.242370101089	1066.280309703804	1434.771931715742	628.950773580134	1004.225426020601	1487.397390888117	453.748820100644	1064.076884383429	927.761156924161	605.288579871184	1022.696791324068	954.775884833783	334.505917289904	1061.391626626717	716.296815444646	578.034535473731	964.028256818162	623.671818575871	649.259238734612	1019.903519985025	556.898624587225	565.287364488596	1000.963409813981	470.215951452429	573.425114447607	1091.602905850743	760.051522669734	363.560930682698	1025.748448796332	634.974962861832	296.390824497910	1125.272400048737	571.454016403613	358.378870460617	1140.670237858265	503.458672618559	360.071268272377	1120.916791439935	431.200486983546	348.869510260970	1044.600596004066	307.162002286230	298.537603777955	1119.577309544617	201.595470841553	357.589314972039	956.964305161043	388.137810178224	585.437710310270	871.028305496631	302.040764280007	656.226617957601	887.694693333019	199.455913719868	593.974731044269	728.054916110516	47.905152875407	574.986444380586	900.599532383278	96.476300776838	608.098266515978	811.541736202625	38.259654458550	648.164290148298	1019.695110282874	40.526810270821	637.836222113797	1016.319988726122	37.841780940258	395.420772134441	1091.538769978274	36.073350417579	316.172812229902	1172.121657346193	99.750853219314	343.328562117705	1301.749649659796	51.788923864888	317.230723944229	876.430534221817	1076.611535708631	225.487586141605	876.664914046362	816.172306468111	205.706590751582	1164.440357223610	1099.150214281845	727.215138238828	1375.570839851913	1121.813636636153	593.795259085325	
